<?xml version="1.0" standalone="no"?>
<!DOCTYPE svg PUBLIC "-//W3C//DTD SVG 20010904//EN"
 "http://www.w3.org/TR/2001/REC-SVG-20010904/DTD/svg10.dtd">
<svg version="1.0" xmlns="http://www.w3.org/2000/svg"
 width="1362.000000pt" height="1354.000000pt" viewBox="0 0 1362.000000 1354.000000"
 preserveAspectRatio="xMidYMid meet">

<g transform="translate(0.000000,1354.000000) scale(0.100000,-0.100000)"
fill="#000000" stroke="none">
<path d="M5878 11653 c7 -3 16 -2 19 1 4 3 -2 6 -13 5 -11 0 -14 -3 -6 -6z"/>
<path d="M5748 11623 c12 -2 30 -2 40 0 9 3 -1 5 -23 4 -22 0 -30 -2 -17 -4z"/>
<path d="M5608 11593 c12 -2 30 -2 40 0 9 3 -1 5 -23 4 -22 0 -30 -2 -17 -4z"/>
<path d="M5475 11571 l-30 -7 31 -5 c36 -6 56 -1 48 12 -6 10 -5 10 -49 0z"/>
<path d="M5548 11573 c6 -2 18 -2 25 0 6 3 1 5 -13 5 -14 0 -19 -2 -12 -5z"/>
<path d="M5360 11543 c-14 -3 -29 -9 -34 -14 -6 -5 -20 -9 -33 -9 -12 0 -42
-6 -65 -14 -24 -7 -72 -21 -108 -31 -182 -49 -304 -85 -322 -95 -10 -6 -27
-10 -38 -10 -11 0 -28 -4 -38 -9 -9 -6 -51 -20 -92 -32 -112 -32 -544 -188
-637 -230 -23 -11 -47 -19 -53 -19 -5 0 -18 -4 -28 -10 -9 -5 -33 -16 -52 -24
-19 -8 -61 -26 -93 -40 -31 -14 -85 -38 -119 -52 -222 -93 -705 -336 -906
-455 -45 -27 -85 -49 -87 -49 -3 0 -22 -11 -43 -23 -20 -13 -68 -41 -107 -62
-136 -75 -283 -169 -609 -389 -190 -129 -175 -119 -286 -200 -184 -134 -410
-314 -442 -351 -42 -49 -29 -133 26 -169 40 -26 57 -22 191 39 28 13 82 36
120 53 60 25 127 54 325 138 19 9 44 19 55 24 11 5 88 36 170 70 83 34 159 65
170 70 88 39 116 50 127 50 8 0 18 4 24 8 5 5 65 30 134 56 69 26 134 52 145
57 11 4 63 24 115 44 52 20 113 43 135 52 22 8 49 19 60 23 11 4 79 29 150 55
72 25 137 50 145 54 9 5 31 12 50 16 19 4 41 11 50 15 8 5 44 18 80 30 36 12
74 26 85 30 11 5 81 29 155 55 74 26 144 51 155 55 11 5 72 25 135 45 63 21
124 41 135 46 11 4 61 19 110 33 50 14 131 37 180 51 115 34 275 79 340 95 28
7 59 16 70 20 20 8 57 18 165 44 234 58 357 89 370 93 8 3 20 7 25 8 11 3 158
38 235 56 25 6 68 16 95 24 28 7 84 21 125 30 41 9 100 23 131 31 30 8 67 14
80 14 14 0 29 3 33 8 4 4 40 12 79 18 145 22 222 37 242 45 11 4 49 13 85 19
36 6 101 17 145 26 44 8 103 19 130 24 48 8 66 11 200 30 33 5 112 14 175 20
63 6 153 18 200 26 47 8 108 14 137 14 56 0 83 7 83 22 0 17 -107 123 -162
161 l-53 36 -110 -10 c-60 -5 -148 -13 -195 -18 -47 -4 -89 -5 -95 -2 -12 7
-48 2 -55 -8 -3 -4 -79 -18 -170 -31 -91 -12 -170 -26 -175 -31 -6 -4 -33 -8
-60 -8 -28 1 -63 -4 -78 -10 -38 -15 -46 -13 -23 4 24 18 12 34 -13 18 -24
-15 -54 2 -31 17 8 5 21 10 28 10 6 0 12 4 12 9 0 14 -48 10 -54 -5 -8 -21
-36 -17 -36 6 0 11 -4 20 -9 20 -18 0 -33 -31 -29 -59 3 -21 1 -28 -9 -24 -18
7 -16 58 3 78 9 9 13 19 10 23 -4 3 -11 1 -15 -6 -4 -7 -25 -14 -47 -17 -21
-2 -33 -1 -26 2 6 2 10 9 6 14 -8 14 -24 11 -24 -6 0 -22 -15 -18 -34 8 -14
21 -16 21 -29 5 -13 -16 -15 -16 -35 5 -12 13 -22 33 -22 45 0 12 -5 22 -11
22 -6 0 -9 -9 -6 -20 6 -25 0 -25 -38 0 -16 11 -38 20 -47 20 -10 0 -18 5 -18
10 0 6 9 10 19 10 10 0 21 7 25 15 6 17 -15 20 -31 4 -8 -8 -16 -8 -30 0 -10
6 -13 11 -5 11 7 0 10 5 7 10 -9 15 -25 12 -25 -5 0 -8 -4 -15 -8 -15 -10 0
-10 46 1 56 4 4 7 14 7 23 0 10 -3 12 -8 5 -4 -6 -15 -13 -24 -17 -19 -7 -25
-27 -8 -27 15 0 12 -19 -5 -37 -14 -14 -15 -13 -9 11 6 27 -4 34 -23 15 -12
-12 -36 -3 -28 11 9 15 -36 32 -66 26 -16 -3 -29 -2 -29 3 0 5 -10 11 -22 14
-13 2 -32 8 -42 12 -14 6 -17 5 -12 -3 11 -19 -41 -15 -63 5 -11 9 -18 20 -15
25 8 13 -6 9 -22 -6 -8 -8 -14 -21 -14 -28 0 -10 -2 -10 -9 1 -5 8 -7 19 -5
26 3 6 -2 18 -11 25 -11 9 -15 9 -15 1 0 -7 -5 -9 -12 -5 -8 5 -2 12 17 20
l30 13 -35 -1 c-19 0 -46 -3 -60 -5z m6 -60 c-11 -11 -17 4 -9 23 7 18 8 18
11 1 2 -10 1 -21 -2 -24z m-36 17 c0 -5 -4 -10 -9 -10 -6 0 -13 5 -16 10 -3 6
1 10 9 10 9 0 16 -4 16 -10z m-70 -14 c0 -3 -4 -8 -10 -11 -5 -3 -10 -1 -10 4
0 6 5 11 10 11 6 0 10 -2 10 -4z m160 -6 c0 -5 -4 -10 -10 -10 -5 0 -10 5 -10
10 0 6 5 10 10 10 6 0 10 -4 10 -10z m440 -130 c0 -5 -7 -7 -15 -4 -8 4 -15 8
-15 10 0 2 7 4 15 4 8 0 15 -4 15 -10z m110 -70 c0 -5 -5 -10 -11 -10 -5 0 -7
5 -4 10 3 6 8 10 11 10 2 0 4 -4 4 -10z m50 -20 c6 -11 9 -20 7 -20 -2 0 -12
9 -22 20 -10 11 -13 20 -7 20 6 0 16 -9 22 -20z m150 -40 c0 -5 -5 -10 -11
-10 -5 0 -7 5 -4 10 3 6 8 10 11 10 2 0 4 -4 4 -10z m100 -29 c0 -6 -4 -13
-10 -16 -5 -3 -10 1 -10 9 0 9 5 16 10 16 6 0 10 -4 10 -9z m60 -25 c0 -3 -4
-8 -10 -11 -5 -3 -10 -1 -10 4 0 6 5 11 10 11 6 0 10 -2 10 -4z m-37 -13 c-7
-2 -19 -2 -25 0 -7 3 -2 5 12 5 14 0 19 -2 13 -5z"/>
<path d="M5460 11530 c-8 -5 -12 -11 -9 -14 2 -3 11 -1 19 4 8 5 12 11 9 14
-2 3 -11 1 -19 -4z"/>
<path d="M5510 11509 c0 -5 5 -7 10 -4 6 3 10 8 10 11 0 2 -4 4 -10 4 -5 0
-10 -5 -10 -11z"/>
<path d="M5787 11461 c-3 -12 -1 -21 3 -21 15 0 23 21 12 32 -6 6 -11 2 -15
-11z"/>
<path d="M5748 11453 c7 -3 16 -2 19 1 4 3 -2 6 -13 5 -11 0 -14 -3 -6 -6z"/>
<path d="M7590 11446 c0 -2 7 -7 16 -10 8 -3 12 -2 9 4 -6 10 -25 14 -25 6z"/>
<path d="M5971 11393 c-18 -19 -10 -25 12 -8 10 7 15 15 10 18 -4 3 -14 -2
-22 -10z"/>
<path d="M7711 11347 c35 -35 82 -90 104 -123 22 -32 42 -61 45 -64 3 -3 10
-14 16 -25 11 -20 20 -20 695 -16 663 3 751 1 1104 -30 160 -13 373 -36 505
-54 226 -30 256 -35 350 -50 52 -9 127 -20 165 -26 39 -6 79 -14 90 -19 11 -5
45 -12 75 -16 30 -3 60 -9 65 -14 6 -4 26 -10 45 -14 58 -10 220 -50 285 -70
6 -2 24 -6 40 -10 17 -4 58 -17 92 -28 83 -26 106 -13 61 35 -26 27 -191 116
-318 172 -140 61 -144 62 -170 70 -14 4 -47 18 -75 30 -27 13 -67 26 -88 30
-20 4 -40 12 -43 17 -4 7 -9 7 -13 0 -6 -9 -60 0 -291 47 -94 20 -185 37 -350
65 -47 9 -116 18 -155 21 -38 4 -95 10 -125 15 -30 5 -89 12 -130 16 -41 3
-84 8 -95 10 -11 2 -74 6 -140 10 -66 3 -136 8 -155 12 -45 7 -1391 12 -1404
5 -5 -3 -42 -8 -83 -10 -59 -3 -75 0 -79 12 -4 8 -11 15 -16 15 -6 0 -19 11
-30 25 -11 14 -25 25 -31 25 -6 0 18 -28 54 -63z"/>
<path d="M6168 11333 c7 -3 16 -2 19 1 4 3 -2 6 -13 5 -11 0 -14 -3 -6 -6z"/>
<path d="M6120 11290 c0 -5 5 -10 10 -10 6 0 10 5 10 10 0 6 -4 10 -10 10 -5
0 -10 -4 -10 -10z"/>
<path d="M6268 11273 c7 -3 16 -2 19 1 4 3 -2 6 -13 5 -11 0 -14 -3 -6 -6z"/>
<path d="M9251 10871 c-40 -52 -114 -159 -208 -301 -45 -69 -86 -129 -91 -135
-4 -5 -19 -28 -32 -50 -13 -22 -27 -42 -30 -45 -3 -3 -32 -45 -64 -95 -32 -49
-74 -112 -93 -140 -44 -64 -453 -674 -513 -765 -25 -37 -82 -123 -127 -191
-85 -130 -203 -311 -318 -489 -37 -58 -87 -134 -110 -170 -51 -78 -95 -154
-95 -163 0 -4 4 -7 9 -7 5 0 48 -23 96 -52 l86 -51 17 24 c9 13 22 32 27 41
85 149 436 697 585 913 23 33 88 132 145 220 57 88 140 214 185 280 206 304
322 475 360 530 22 33 105 157 184 275 78 118 168 252 199 297 31 46 57 87 57
92 0 5 -19 7 -42 4 -24 -2 -78 0 -121 5 l-78 8 -28 -35z"/>
<path d="M7952 10890 c-85 -5 -105 -10 -117 -26 -8 -10 -15 -23 -15 -28 0 -8
-101 -249 -153 -367 -13 -30 -30 -70 -37 -89 -15 -41 -29 -73 -64 -152 -14
-31 -48 -114 -76 -185 -28 -70 -55 -137 -60 -148 -5 -11 -19 -45 -30 -75 -11
-30 -24 -64 -29 -75 -4 -11 -15 -36 -23 -55 -8 -19 -28 -77 -44 -127 -16 -51
-33 -93 -39 -93 -5 0 -11 21 -12 48 -2 66 -21 308 -34 427 -12 114 -24 291
-39 585 -7 113 -15 221 -19 240 -6 33 -9 35 -41 32 -75 -6 -181 -25 -186 -34
-3 -4 -1 -32 5 -61 6 -28 13 -104 16 -167 8 -168 16 -283 19 -289 2 -3 7 -76
10 -161 4 -85 9 -157 11 -160 6 -10 14 -125 21 -297 3 -89 7 -169 7 -179 4
-40 -21 -18 -68 59 -47 78 -76 120 -266 393 -46 66 -88 128 -94 136 -5 9 -39
59 -75 110 -90 130 -232 339 -293 430 -50 75 -52 76 -87 71 -19 -3 -46 -11
-60 -18 -14 -7 -46 -16 -72 -19 -27 -4 -48 -12 -48 -18 0 -10 90 -149 171
-263 23 -33 130 -190 238 -350 211 -313 241 -357 314 -459 26 -37 47 -69 47
-71 0 -2 24 -39 54 -82 217 -312 269 -395 272 -436 2 -23 6 -97 10 -164 l7
-123 41 -24 c23 -13 79 -49 125 -80 47 -30 87 -54 89 -51 3 3 -15 281 -30 455
-2 18 20 95 32 119 13 23 84 195 160 386 40 103 59 146 70 167 6 10 10 23 10
28 0 6 8 30 19 53 10 23 28 68 40 101 12 32 30 77 40 100 10 22 49 118 86 211
56 141 137 339 176 430 4 11 31 76 59 145 28 69 55 134 60 145 15 34 22 65 13
63 -4 0 -54 -4 -111 -8z"/>
<path d="M10195 10874 c-135 -70 -385 -270 -528 -423 -18 -18 -50 -52 -72 -75
-22 -24 -53 -58 -69 -77 -15 -18 -63 -74 -105 -124 -71 -83 -183 -222 -257
-320 -17 -22 -56 -76 -86 -120 -30 -44 -89 -129 -131 -190 -90 -129 -74 -105
-185 -275 -131 -200 -202 -310 -202 -315 0 -2 -31 -52 -69 -112 -37 -59 -83
-135 -101 -168 -18 -33 -39 -67 -46 -76 -8 -8 -14 -19 -14 -22 0 -4 -17 -35
-39 -70 -21 -35 -54 -92 -74 -128 -19 -35 -46 -85 -60 -110 -55 -97 -107 -203
-107 -216 0 -8 8 -17 18 -20 9 -4 54 -31 100 -61 94 -61 78 -65 149 38 361
530 684 828 1099 1015 54 24 101 50 105 57 3 7 12 38 18 68 39 182 204 684
287 876 7 16 35 82 62 145 89 206 262 545 348 681 22 34 22 38 7 38 -10 0 -31
-7 -48 -16z"/>
<path d="M4530 10258 c-25 -5 -52 -12 -60 -15 -15 -6 -20 -7 -80 -18 -19 -4
-39 -10 -45 -15 -5 -4 -44 -17 -85 -29 -41 -13 -84 -26 -95 -31 -11 -4 -51
-16 -90 -25 -38 -10 -74 -21 -80 -25 -5 -4 -44 -17 -85 -30 -41 -12 -89 -28
-107 -36 l-32 -15 28 -77 c40 -107 70 -183 81 -207 5 -11 19 -45 30 -75 11
-30 25 -64 30 -75 5 -11 25 -60 45 -108 60 -148 246 -538 335 -702 173 -319
421 -714 633 -1008 48 -67 100 -139 115 -160 15 -22 39 -53 53 -70 15 -18 39
-51 55 -73 25 -35 95 -127 202 -264 15 -19 50 -60 77 -90 28 -31 73 -83 100
-115 49 -58 77 -90 234 -265 41 -47 139 -150 216 -230 77 -79 145 -149 150
-156 32 -37 130 -137 179 -183 l57 -53 104 104 c148 150 377 325 580 444 27
16 59 34 70 41 27 16 228 115 285 141 163 74 394 154 535 187 39 8 79 18 90
21 71 18 256 36 410 40 219 6 359 -12 605 -77 25 -6 49 -16 55 -20 5 -5 16 -9
25 -9 8 0 28 -7 44 -15 15 -8 32 -15 37 -15 5 0 37 -13 71 -30 34 -16 64 -30
66 -30 7 0 -72 58 -133 100 -27 18 -282 174 -565 345 -482 292 -611 370 -1030
630 -337 209 -943 597 -960 615 -3 3 -39 27 -80 55 -41 27 -77 51 -80 54 -3 3
-68 48 -145 100 -77 52 -144 99 -150 103 -9 9 -230 167 -350 252 -30 22 -63
47 -72 55 -10 9 -38 32 -63 51 -25 19 -52 40 -60 47 -8 7 -85 68 -171 136
-165 131 -334 274 -435 366 -33 31 -107 99 -164 151 -57 52 -150 140 -206 195
-132 130 -121 123 -174 113z"/>
<path d="M9800 8890 c-305 -66 -559 -210 -805 -458 -95 -96 -104 -105 -150
-167 -17 -22 -36 -47 -44 -55 -41 -43 -241 -329 -241 -345 0 -3 -12 -24 -26
-46 -24 -39 -26 -69 -5 -69 11 0 66 -33 366 -215 116 -70 217 -133 226 -141 8
-8 18 -14 22 -14 3 0 35 -20 71 -45 37 -25 68 -45 70 -45 5 0 160 -93 166 -99
7 -8 41 -30 60 -38 8 -4 17 -9 20 -12 3 -3 20 -17 38 -29 39 -27 55 -23 20 4
-13 11 -52 50 -86 88 -125 137 -188 332 -164 502 22 151 90 281 204 390 152
146 338 231 539 250 151 13 327 -44 416 -135 52 -54 77 -104 104 -212 12 -46
36 -109 55 -140 39 -64 111 -139 134 -139 9 0 20 -4 26 -9 14 -13 101 -32 118
-25 8 3 18 14 21 23 10 31 166 182 260 251 173 127 407 252 595 315 79 27 94
46 60 76 -14 12 -47 32 -75 45 -92 42 -162 54 -331 54 -248 1 -394 15 -451 44
-27 13 -57 34 -68 46 -41 46 -174 150 -251 197 -97 60 -229 117 -332 143 -84
22 -109 24 -292 26 -149 2 -202 -1 -270 -16z"/>
<path d="M10072 8115 c-56 -17 -77 -37 -98 -92 -14 -37 -15 -50 -5 -86 24 -80
93 -125 171 -112 74 12 120 69 120 148 0 57 -31 104 -90 133 -52 27 -43 26
-98 9z"/>
<path d="M3118 7653 c7 -3 16 -2 19 1 4 3 -2 6 -13 5 -11 0 -14 -3 -6 -6z"/>
<path d="M3070 7639 c0 -5 5 -7 10 -4 6 3 10 8 10 11 0 2 -4 4 -10 4 -5 0 -10
-5 -10 -11z"/>
<path d="M2977 7610 c-93 -38 -124 -76 -132 -162 -5 -52 12 -28 18 25 5 44 12
57 44 84 21 18 46 33 56 33 9 0 25 4 35 9 9 5 28 14 42 19 21 9 22 11 5 11
-11 0 -41 -9 -68 -19z"/>
<path d="M2880 7460 c13 -23 20 -26 20 -6 0 8 -7 16 -15 20 -13 4 -14 2 -5
-14z"/>
<path d="M3268 7433 c6 -2 18 -2 25 0 6 3 1 5 -13 5 -14 0 -19 -2 -12 -5z"/>
<path d="M2900 7415 c-7 -9 -10 -18 -7 -22 8 -7 37 15 37 28 0 14 -16 11 -30
-6z"/>
<path d="M3193 7414 c-18 -8 -33 -16 -33 -18 0 -6 55 10 77 23 27 16 -5 12
-44 -5z"/>
<path d="M2861 7395 c0 -11 10 -27 22 -36 31 -23 91 -38 108 -29 8 4 33 11 57
15 23 4 42 11 42 15 0 5 8 11 18 14 9 2 -5 2 -33 0 -27 -3 -57 -8 -65 -11 -8
-3 -31 -7 -52 -8 -26 -2 -35 1 -31 11 2 7 11 15 19 18 8 3 14 10 14 16 0 6
-11 3 -25 -8 -28 -22 -62 -19 -68 7 -4 12 -5 11 -6 -4z"/>
<path d="M3130 7390 c0 -5 5 -10 10 -10 6 0 10 5 10 10 0 6 -4 10 -10 10 -5 0
-10 -4 -10 -10z"/>
<path d="M2973 7383 c-15 -5 -17 -23 -4 -23 5 0 11 7 15 15 3 8 4 15 3 14 -1
0 -8 -3 -14 -6z"/>
<path d="M8130 6564 c-128 -14 -238 -32 -265 -44 -11 -5 -39 -11 -63 -14 -24
-4 -51 -10 -60 -15 -9 -4 -62 -23 -117 -40 -55 -18 -116 -38 -135 -46 -68 -25
-125 -48 -157 -61 -17 -8 -36 -14 -42 -14 -6 0 -11 -4 -11 -10 0 -5 -5 -10
-11 -10 -15 0 -159 -71 -224 -110 -27 -16 -57 -33 -65 -37 -8 -4 -19 -11 -25
-15 -10 -9 -132 -96 -169 -120 -161 -109 -443 -381 -637 -613 -193 -231 -431
-585 -609 -904 -67 -122 -87 -157 -130 -231 -20 -36 -56 -99 -80 -140 -79
-137 -213 -333 -315 -460 -98 -124 -380 -413 -525 -542 -41 -36 -72 -69 -69
-72 17 -18 402 110 614 204 11 5 45 20 75 33 87 39 148 67 245 113 50 23 133
62 185 87 52 24 165 78 250 119 526 254 544 261 666 260 71 -1 88 -5 140 -32
73 -40 96 -60 144 -132 56 -84 75 -177 59 -286 -12 -81 -12 -83 11 -107 69
-74 224 33 327 225 90 166 84 362 -15 516 -100 155 -253 225 -488 224 -85 -1
-103 2 -108 15 -10 27 -7 193 4 200 6 3 10 21 10 39 0 31 28 125 50 171 5 11
18 43 29 71 52 136 257 446 420 634 31 36 67 78 81 95 41 50 341 347 415 412
219 189 424 339 700 510 11 7 74 40 140 74 66 33 122 63 125 66 9 8 -260 -1
-370 -13z"/>
<path d="M3578 6503 c7 -3 16 -2 19 1 4 3 -2 6 -13 5 -11 0 -14 -3 -6 -6z"/>
<path d="M3318 6413 c7 -3 16 -2 19 1 4 3 -2 6 -13 5 -11 0 -14 -3 -6 -6z"/>
<path d="M3164 6355 c-10 -8 -14 -15 -8 -15 5 0 14 4 20 9 5 5 18 11 29 14 20
5 19 5 -1 6 -11 0 -29 -6 -40 -14z"/>
<path d="M3118 6333 c7 -3 16 -2 19 1 4 3 -2 6 -13 5 -11 0 -14 -3 -6 -6z"/>
<path d="M3060 6320 c0 -5 -10 -10 -22 -10 -17 0 -19 -3 -10 -12 9 -9 16 -7
33 8 12 10 23 18 26 16 3 -2 7 -1 11 2 3 3 -4 6 -16 6 -12 0 -22 -4 -22 -10z"/>
<path d="M2960 6283 l-35 -14 35 6 c19 3 39 10 44 15 13 13 0 11 -44 -7z"/>
<path d="M2875 6250 c-4 -6 -11 -8 -16 -4 -5 3 -17 0 -25 -7 -9 -7 -25 -15
-37 -16 -12 -2 -24 -7 -27 -12 -3 -4 -22 -11 -42 -15 -21 -4 -38 -11 -38 -15
0 -5 -21 -12 -46 -16 -29 -4 -44 -11 -41 -18 3 -8 -8 -12 -32 -12 -21 -1 -53
-8 -72 -17 -19 -10 -61 -25 -92 -35 -31 -9 -57 -21 -57 -25 0 -4 -9 -8 -20 -8
-10 0 -34 -6 -52 -14 -18 -8 -53 -22 -78 -31 -25 -9 -52 -21 -61 -25 -9 -5
-33 -12 -53 -15 -20 -4 -36 -11 -36 -15 0 -5 -15 -11 -32 -15 -34 -7 -80 -25
-136 -53 -113 -58 -93 -243 28 -259 37 -5 132 18 195 48 11 5 49 20 85 33 152
55 186 68 205 76 11 5 45 19 75 31 30 12 69 28 87 35 17 8 36 14 42 14 6 0 19
4 29 9 9 5 46 19 82 31 36 12 74 25 85 30 11 4 40 15 65 25 25 9 56 22 70 27
13 5 51 19 85 30 33 11 74 26 92 34 17 8 38 14 46 14 9 0 18 4 22 9 3 5 20 13
37 17 18 3 39 10 48 14 21 11 71 33 95 42 13 5 8 6 -15 3 -18 -3 -38 -11 -43
-18 -7 -9 -10 -9 -14 1 -4 11 -8 11 -22 -1 -29 -24 -241 -97 -282 -97 -12 0
-30 -7 -38 -14 -12 -11 -26 -13 -54 -6 -28 6 -37 5 -34 -3 2 -7 11 -11 20 -9
8 1 18 -2 22 -8 3 -5 2 -10 -4 -10 -5 0 -16 -3 -25 -6 -11 -4 -19 3 -28 22 -6
16 -12 33 -12 38 -1 9 -60 46 -74 45 -4 0 -8 9 -10 21 -2 11 -10 21 -18 21 -8
1 -18 3 -24 4 -5 1 -15 3 -20 4 -23 3 16 41 42 41 14 0 28 5 30 11 2 5 10 11
18 12 8 2 20 5 25 9 6 3 25 9 43 13 17 3 32 10 32 14 0 4 12 12 28 18 24 10
25 11 5 12 -12 1 -25 -4 -28 -9z m-98 -216 c-3 -3 -12 -4 -19 -1 -8 3 -5 6 6
6 11 1 17 -2 13 -5z m33 -14 c0 -5 -2 -10 -4 -10 -3 0 -8 5 -11 10 -3 6 -1 10
4 10 6 0 11 -4 11 -10z m14 -35 c3 -8 1 -15 -4 -15 -6 0 -10 7 -10 15 0 8 2
15 4 15 2 0 6 -7 10 -15z m-37 -1 c-3 -3 -12 -4 -19 -1 -8 3 -5 6 6 6 11 1 17
-2 13 -5z m3 -24 c0 -5 -7 -10 -16 -10 -8 0 -12 5 -9 10 3 6 10 10 16 10 5 0
9 -4 9 -10z"/>
<path d="M3598 6233 c7 -3 16 -2 19 1 4 3 -2 6 -13 5 -11 0 -14 -3 -6 -6z"/>
<path d="M3558 6223 c7 -3 16 -2 19 1 4 3 -2 6 -13 5 -11 0 -14 -3 -6 -6z"/>
<path d="M3485 6200 c-25 -11 1 -11 35 0 20 6 21 8 5 8 -11 0 -29 -3 -40 -8z"/>
<path d="M3410 6170 c-18 -12 -2 -12 25 0 13 6 15 9 5 9 -8 0 -22 -4 -30 -9z"/>
<path d="M2866 6103 c-6 -14 -5 -15 5 -6 7 7 10 15 7 18 -3 3 -9 -2 -12 -12z"/>
<path d="M2795 6090 c-3 -6 1 -7 9 -4 18 7 21 14 7 14 -6 0 -13 -4 -16 -10z"/>
<path d="M2925 6070 c-4 -6 3 -10 14 -10 25 0 27 6 6 13 -8 4 -17 2 -20 -3z"/>
<path d="M9675 6069 c-11 -16 -1 -19 13 -3 7 8 8 14 3 14 -5 0 -13 -5 -16 -11z"/>
<path d="M2875 6040 c-3 -5 0 -7 8 -4 8 3 17 -2 20 -10 4 -9 12 -16 18 -16 7
0 5 8 -6 20 -20 22 -31 25 -40 10z"/>
<path d="M9616 6003 c-6 -14 -5 -15 5 -6 7 7 10 15 7 18 -3 3 -9 -2 -12 -12z"/>
<path d="M9556 5943 c-6 -14 -5 -15 5 -6 7 7 10 15 7 18 -3 3 -9 -2 -12 -12z"/>
<path d="M9485 5876 c-28 -28 -77 -73 -110 -101 -32 -27 -67 -57 -76 -65 -94
-83 -439 -350 -453 -350 -3 0 -32 -19 -65 -42 -62 -46 -66 -48 -151 -105 -71
-47 -359 -223 -364 -223 -2 0 -37 -19 -78 -43 -91 -54 -514 -267 -668 -337
-63 -29 -137 -62 -165 -75 -65 -29 -138 -59 -197 -81 -27 -9 -48 -20 -48 -25
0 -5 13 -15 29 -23 46 -24 144 -128 184 -196 20 -34 37 -66 37 -71 0 -5 4 -17
10 -27 13 -23 40 -137 40 -168 0 -13 2 -24 6 -24 10 0 190 51 244 70 54 18
155 58 215 84 17 7 46 20 65 27 19 8 112 53 205 100 161 81 289 158 434 260
87 61 203 139 207 139 16 0 127 -86 158 -122 78 -91 101 -166 91 -304 -6 -95
-5 -104 14 -123 27 -27 41 -26 107 5 89 42 185 169 227 301 19 58 24 238 7
248 -5 3 -10 14 -10 23 0 56 -106 181 -197 233 -30 17 -53 35 -51 40 2 4 69
75 149 156 80 81 176 184 213 228 37 44 78 91 90 105 18 21 63 78 98 125 4 6
24 30 43 55 39 51 46 59 60 82 6 9 28 42 49 72 22 31 37 58 34 61 -3 3 -24
-21 -47 -54 -60 -89 -74 -103 -83 -88 -15 23 -9 39 12 32 40 -13 12 33 -32 52
-40 18 -36 37 5 29 30 -5 31 -5 13 9 -11 8 -30 15 -43 15 -14 0 -23 6 -23 15
0 17 16 20 25 5 7 -12 25 -4 25 11 0 5 -8 9 -19 9 -24 0 -45 25 -38 45 4 8 2
17 -2 20 -5 2 -11 -7 -14 -20 -2 -14 0 -28 4 -31 20 -12 7 -23 -21 -17 -28 5
-30 3 -31 -23 l-1 -29 -12 27 c-11 26 -13 27 -29 11 -9 -9 -19 -14 -23 -10 -7
7 11 27 41 46 19 12 19 12 1 6 -11 -3 -23 0 -28 7 -6 9 -10 7 -14 -10 -5 -18
-13 -22 -32 -20 -14 2 -28 9 -30 17 -3 10 1 12 16 9 21 -6 40 18 20 24 -7 3
-1 14 12 26 13 12 22 24 19 26 -2 2 -27 -19 -54 -48z m-15 -76 c0 -5 -9 -10
-20 -10 -11 0 -20 -5 -20 -12 0 -6 -2 -9 -5 -6 -3 3 -3 13 1 22 7 17 44 23 44
6z m210 -149 c0 -6 -4 -13 -10 -16 -5 -3 -10 1 -10 9 0 9 5 16 10 16 6 0 10
-4 10 -9z"/>
<path d="M9610 5870 c0 -5 5 -10 10 -10 6 0 10 5 10 10 0 6 -4 10 -10 10 -5 0
-10 -4 -10 -10z"/>
<path d="M9916 5864 c-4 -9 -4 -19 -1 -22 2 -3 7 3 11 12 4 9 4 19 1 22 -2 3
-7 -3 -11 -12z"/>
<path d="M9685 5859 c-11 -17 1 -21 15 -4 8 9 8 15 2 15 -6 0 -14 -5 -17 -11z"/>
<path d="M9715 5840 c3 -5 11 -10 16 -10 6 0 7 5 4 10 -3 6 -11 10 -16 10 -6
0 -7 -4 -4 -10z"/>
<path d="M9887 5823 c-4 -3 -7 -11 -7 -17 0 -6 5 -5 12 2 6 6 9 14 7 17 -3 3
-9 2 -12 -2z"/>
<path d="M4608 5643 c7 -3 16 -2 19 1 4 3 -2 6 -13 5 -11 0 -14 -3 -6 -6z"/>
<path d="M4510 5610 c0 -5 4 -10 9 -10 6 0 13 5 16 10 3 6 -1 10 -9 10 -9 0
-16 -4 -16 -10z"/>
<path d="M4468 5593 c6 -2 18 -2 25 0 6 3 1 5 -13 5 -14 0 -19 -2 -12 -5z"/>
<path d="M4420 5582 c0 -5 -19 -12 -42 -18 -23 -5 -44 -16 -46 -24 -4 -12 -2
-13 9 -3 8 6 36 17 62 23 44 12 64 30 32 30 -8 0 -15 -4 -15 -8z"/>
<path d="M5098 5543 c7 -3 16 -2 19 1 4 3 -2 6 -13 5 -11 0 -14 -3 -6 -6z"/>
<path d="M4250 5521 c0 -5 -10 -12 -22 -14 -21 -4 -21 -4 -2 -6 11 0 29 6 40
14 17 13 17 14 2 15 -10 0 -18 -4 -18 -9z"/>
<path d="M4150 5484 c-14 -8 -19 -14 -10 -14 26 0 60 12 60 21 0 12 -20 10
-50 -7z"/>
<path d="M4085 5460 c-3 -5 -18 -10 -33 -10 -18 0 -23 -3 -14 -8 8 -5 10 -16
6 -27 -5 -13 -4 -16 4 -11 7 4 12 14 12 21 0 8 11 17 25 21 14 3 25 10 25 15
0 12 -17 11 -25 -1z"/>
<path d="M4848 5453 c7 -3 16 -2 19 1 4 3 -2 6 -13 5 -11 0 -14 -3 -6 -6z"/>
<path d="M3995 5430 c-3 -5 -17 -10 -31 -10 -13 0 -24 -4 -24 -10 0 -5 -7 -10
-15 -10 -17 0 -131 -36 -155 -49 -9 -5 -30 -12 -48 -15 -17 -4 -34 -12 -37
-17 -4 -5 -15 -9 -27 -9 -11 0 -34 -6 -51 -14 -18 -8 -79 -31 -137 -51 -100
-35 -121 -43 -172 -64 -13 -6 -34 -13 -48 -16 -33 -9 -191 -65 -210 -75 -9 -4
-30 -11 -49 -15 -18 -4 -44 -13 -59 -21 -15 -8 -35 -14 -44 -14 -9 0 -19 -4
-22 -9 -4 -5 -24 -12 -46 -16 -22 -4 -40 -11 -40 -16 0 -5 -7 -9 -16 -9 -9 0
-30 -6 -47 -13 -18 -8 -57 -22 -87 -32 -30 -10 -59 -21 -65 -26 -5 -4 -27 -10
-48 -14 -20 -4 -40 -11 -43 -16 -3 -5 -13 -9 -22 -9 -9 0 -29 -6 -44 -14 -15
-8 -40 -17 -57 -21 -17 -4 -33 -11 -36 -16 -4 -5 -13 -9 -22 -9 -8 0 -29 -6
-46 -14 -18 -7 -54 -21 -82 -31 -109 -36 -150 -68 -166 -127 -28 -106 60 -195
165 -167 57 15 217 68 241 79 11 5 65 25 120 44 130 44 242 85 280 101 17 7
64 25 105 39 41 15 86 32 100 37 13 6 51 19 85 30 33 11 68 24 77 30 10 5 23
9 29 9 6 0 25 6 42 14 30 13 96 37 297 108 47 17 94 34 105 38 11 5 47 18 80
31 33 12 74 27 90 34 17 7 67 24 112 39 45 15 94 33 110 41 15 8 36 15 45 15
9 0 20 5 23 10 3 6 14 10 23 10 9 0 29 6 44 14 15 8 42 17 60 21 18 4 38 11
43 15 6 4 22 10 38 14 15 3 27 11 27 16 0 6 13 10 29 10 17 0 33 5 36 11 13
20 -4 20 -50 0 -26 -12 -55 -21 -64 -21 -9 0 -22 -5 -29 -12 -7 -7 -12 -8 -12
-3 0 4 -9 0 -20 -10 -15 -14 -29 -16 -62 -12 -25 4 -35 3 -24 -2 15 -6 17 -10
7 -16 -7 -4 -16 -3 -20 3 -3 6 -26 12 -50 14 -25 2 -46 9 -49 16 -5 15 32 16
58 2 25 -13 70 -2 70 17 0 9 -6 13 -15 10 -8 -4 -17 -2 -20 3 -4 6 -12 10 -18
10 -7 0 -4 -5 6 -11 9 -5 17 -14 17 -19 0 -16 -28 -11 -38 6 -7 13 -18 15 -51
9 -22 -4 -41 -12 -41 -18 0 -7 -5 -6 -10 3 -9 13 -12 12 -25 -4 -13 -17 -15
-17 -15 -4 0 9 6 23 13 30 8 7 12 19 9 26 -2 6 1 12 7 12 6 0 11 -4 11 -9 0
-5 7 -11 14 -14 22 -9 10 16 -15 31 -18 11 -23 11 -34 -5 -8 -11 -9 -20 -4
-24 6 -3 3 -11 -6 -19 -13 -11 -15 -8 -11 26 2 22 2 33 -1 27 -2 -7 -11 -13
-19 -13 -17 0 -19 -17 -2 -22 7 -3 8 -9 3 -18 -6 -10 -11 -9 -22 6 -12 16 -15
17 -23 4 -7 -12 -12 -12 -22 -2 -9 9 -9 12 5 12 22 0 23 36 1 48 -14 8 -13 10
5 15 16 4 21 1 21 -14 0 -16 3 -17 19 -7 16 10 18 15 8 27 -10 12 -8 13 11 8
13 -3 21 -3 18 0 -8 8 20 33 37 33 23 0 47 11 47 21 0 12 -17 11 -25 -1z
m-165 -90 c0 -5 -5 -10 -11 -10 -5 0 -7 5 -4 10 3 6 8 10 11 10 2 0 4 -4 4
-10z m100 -90 c0 -5 -4 -10 -10 -10 -5 0 -10 5 -10 10 0 6 5 10 10 10 6 0 10
-4 10 -10z m87 -42 c-3 -8 -6 -5 -6 6 -1 11 2 17 5 13 3 -3 4 -12 1 -19z m49
-14 c-3 -9 -6 -18 -6 -20 0 -2 -4 -4 -9 -4 -5 0 -7 9 -4 20 3 11 10 20 15 20
6 0 7 -7 4 -16z m34 6 c0 -5 -4 -10 -10 -10 -5 0 -10 5 -10 10 0 6 5 10 10 10
6 0 10 -4 10 -10z m-190 -30 c0 -5 -7 -10 -16 -10 -8 0 -12 5 -9 10 3 6 10 10
16 10 5 0 9 -4 9 -10z m27 -26 c-3 -3 -12 -4 -19 -1 -8 3 -5 6 6 6 11 1 17 -2
13 -5z"/>
<path d="M4090 5420 c-13 -8 -12 -10 3 -10 9 0 17 5 17 10 0 12 -1 12 -20 0z"/>
<path d="M4748 5423 c6 -2 18 -2 25 0 6 3 1 5 -13 5 -14 0 -19 -2 -12 -5z"/>
<path d="M4600 5370 c-11 -8 -7 -9 15 -4 37 8 45 14 19 14 -10 0 -26 -5 -34
-10z"/>
<path d="M4538 5343 c7 -3 16 -2 19 1 4 3 -2 6 -13 5 -11 0 -14 -3 -6 -6z"/>
<path d="M4095 5330 c-4 -6 5 -10 19 -10 14 0 26 5 26 10 0 6 -9 10 -19 10
-11 0 -23 -4 -26 -10z"/>
<path d="M4485 5330 c-3 -5 1 -10 9 -10 8 0 18 5 21 10 3 6 -1 10 -9 10 -8 0
-18 -4 -21 -10z"/>
<path d="M4156 5305 c4 -8 8 -15 10 -15 2 0 4 7 4 15 0 8 -4 15 -10 15 -5 0
-7 -7 -4 -15z"/>
<path d="M4425 5309 c-11 -16 -2 -17 25 -2 24 12 24 13 3 13 -12 0 -25 -5 -28
-11z"/>
<path d="M4250 5290 c-8 -5 -12 -12 -9 -15 4 -3 12 1 19 10 14 17 11 19 -10 5z"/>
<path d="M4190 5275 c0 -8 7 -15 15 -15 8 0 15 4 15 9 0 5 -7 11 -15 15 -9 3
-15 0 -15 -9z"/>
<path d="M4785 4248 c-16 -5 -39 -13 -50 -17 -11 -5 -58 -23 -105 -40 -47 -18
-93 -36 -102 -42 -10 -5 -23 -9 -29 -9 -6 0 -25 -7 -42 -14 -37 -17 -153 -58
-247 -87 -36 -11 -78 -27 -95 -34 -16 -8 -66 -26 -110 -41 -44 -15 -91 -31
-105 -37 -14 -5 -34 -12 -45 -14 -10 -2 -29 -10 -40 -17 -11 -7 -35 -17 -52
-20 -121 -27 -189 -115 -162 -207 16 -52 58 -95 100 -101 20 -3 62 6 113 24
44 16 108 38 140 49 33 10 64 23 70 28 6 4 22 11 36 14 26 6 230 81 265 97 11
5 81 32 155 60 74 28 144 54 155 59 11 5 40 17 65 26 25 10 59 24 77 31 17 8
38 14 46 14 9 0 18 4 21 9 3 4 19 11 36 14 35 8 38 19 10 47 -26 26 -25 40 1
33 18 -5 20 -2 17 28 -2 24 -10 37 -25 44 -13 5 -23 13 -23 18 0 4 -12 5 -27
2 -26 -6 -27 -5 -10 8 21 17 16 22 -30 32 -21 4 -33 3 -33 -4 0 -6 -7 -11 -15
-11 -8 0 -15 3 -15 8 0 10 81 42 107 42 12 0 25 5 28 10 8 13 -40 12 -80 -2z
m-52 -65 c2 -5 7 -21 11 -37 6 -26 5 -28 -8 -17 -9 7 -13 17 -10 22 3 5 -1 6
-9 3 -8 -3 -20 3 -28 12 -12 16 -12 17 4 11 9 -3 17 -2 17 3 0 12 17 13 23 3z
m-93 -43 c0 -5 -5 -10 -11 -10 -5 0 -7 5 -4 10 3 6 8 10 11 10 2 0 4 -4 4 -10z
m210 0 c0 -5 -4 -10 -10 -10 -5 0 -10 5 -10 10 0 6 5 10 10 10 6 0 10 -4 10
-10z m-250 -10 c0 -5 -5 -10 -11 -10 -5 0 -7 5 -4 10 3 6 8 10 11 10 2 0 4 -4
4 -10z m299 -23 c-2 -1 -14 -8 -27 -15 -13 -7 -27 -10 -33 -7 -15 10 0 25 18
18 12 -5 15 -2 10 9 -8 23 3 30 20 12 9 -8 14 -16 12 -17z m-52 -92 c-4 -8
-11 -15 -17 -15 -7 0 -7 6 0 21 13 23 26 19 17 -6z m33 0 c0 -8 -4 -15 -10
-15 -5 0 -7 7 -4 15 4 8 8 15 10 15 2 0 4 -7 4 -15z"/>
<path d="M4900 4230 c13 -11 27 -20 32 -20 4 0 8 -5 8 -11 0 -5 -4 -7 -10 -4
-5 3 -10 1 -10 -4 0 -6 7 -11 15 -11 8 0 15 -7 15 -15 0 -8 5 -15 10 -15 6 0
10 7 10 15 0 8 -4 15 -10 15 -5 0 -10 6 -10 13 0 17 -42 57 -60 57 -8 0 -4 -8
10 -20z"/>
<path d="M4926 4142 c15 -10 12 -84 -4 -101 -7 -7 -11 -16 -8 -19 8 -8 36 19
36 34 0 8 5 14 10 14 17 0 11 46 -8 63 -10 10 -23 17 -28 17 -5 0 -4 -4 2 -8z"/>
</g>
</svg>
